<mxfile host="app.diagrams.net" modified="2023-06-30T01:06:29.643Z" agent="Mozilla/5.0 (Windows NT 10.0; Win64; x64; rv:95.0) Gecko/20100101 Firefox/95.0" version="21.5.2" etag="nU0CPRKre1u76ugDU9Pz" type="github">
  <diagram name="第 1 页" id="0IUY9smvLS5IQisyLXfm">
    <mxGraphModel>
      <root>
        <mxCell id="0" />
        <mxCell id="1" parent="0" />
      </root>
    </mxGraphModel>
  </diagram>
</mxfile>
